# xmcd
#
# Track frame offsets:
#	150
#	12517
#	25075
#	37078
#	46936
#	58167
#	66499
#	76603
#	89042
#	106693
#	116209
#	124691
#	139693
#	152471
#	163655
#	176182
#	188640
#	197961
#
# Disc length: 2817 seconds
#
# Revision: 1
# Processed by: cddbd v1.5.2PL0 Copyright (c) Steve Scherf et al.
# Submitted via: audiograbber 1.83.01
#
DISCID=f80aff12
DTITLE=Johnny Cash - Bits and pieces about..
DYEAR=1900
DGENRE=Country
TTITLE0=I walk the line
TTITLE1=Next the line
TTITLE2=Home of the blues
TTITLE3=Ballad of a teenage queen
TTITLE4=Big river
TTITLE5=Guess things happen that way
TTITLE6=The ways of a woman in love
TTITLE7=Ring of fire (live record)
TTITLE8=Orange blossom special (live record)
TTITLE9=If i were a carpenter (live record)
TTITLE10=I got stripes (live record)
TTITLE11=A boy namend sue (live record)
TTITLE12=San quentin (live record)
TTITLE13=Oh, lonesome me
TTITLE14=The one on the right is on the left
TTITLE15=Folsom Prison blues
TTITLE16=Down the street to 301
TTITLE17=Don`t take your guns to town
EXTD=
EXTT0=
EXTT1=
EXTT2=
EXTT3=
EXTT4=
EXTT5=
EXTT6=
EXTT7=
EXTT8=
EXTT9=
EXTT10=
EXTT11=
EXTT12=
EXTT13=
EXTT14=
EXTT15=
EXTT16=
EXTT17=
PLAYORDER=
